<svg enable-background="new 0 0 270 127" height="143" id="mellon_knockout" inkscape:version="0.91 r13725" sodipodi:docname="mellon_knockout.svg" style="max-width: 100%;" version="1.1" viewbox="0 0 349 202" width="265" x="0px" xml:space="preserve" xmlns="http://www.w3.org/2000/svg" xmlns:cc="http://creativecommons.org/ns#" xmlns:dc="http://purl.org/dc/elements/1.1/" xmlns:inkscape="http://www.inkscape.org/namespaces/inkscape" xmlns:rdf="http://www.w3.org/1999/02/22-rdf-syntax-ns#" xmlns:sodipodi="http://sodipodi.sourceforge.net/DTD/sodipodi-0.dtd" xmlns:svg="http://www.w3.org/2000/svg" y="0px">
	<metadata id="metadata5436">
		<rdf>
			<work rdf:about="">
				<format>image/svg+xml</format>
				<type rdf:resource="http://purl.org/dc/dcmitype/StillImage"></type>
				<title></title>
			</work>
		</rdf>
	</metadata>
	<defs id="defs5434"></defs>
	<namedview bordercolor="#666666" borderopacity="1" gridtolerance="10" guidetolerance="10" id="namedview5432" inkscape:current-layer="svg5368" inkscape:cx="176.23661" inkscape:cy="87.075556" inkscape:pageopacity="0" inkscape:pageshadow="2" inkscape:window-height="1017" inkscape:window-maximized="1" inkscape:window-width="1920" inkscape:window-x="-8" inkscape:window-y="-8" inkscape:zoom="3.0169889" objecttolerance="10" pagecolor="#ffffff" showgrid="false"></namedview>
	<rect height="164.09677" id="rect5980" style="color:#000000;clip-rule:nonzero;display:inline;overflow:visible;visibility:visible;opacity:1;isolation:auto;mix-blend-mode:normal;color-interpolation:sRGB;color-interpolation-filters:linearRGB;solid-color:#000000;solid-opacity:1;fill:#000000;fill-opacity:1;fill-rule:nonzero;stroke:#000000;stroke-width:37.90323257;stroke-linecap:round;stroke-linejoin:miter;stroke-miterlimit:4;stroke-dasharray:none;stroke-dashoffset:0;stroke-opacity:1;color-rendering:auto;image-rendering:auto;shape-rendering:auto;text-rendering:auto;enable-background:accumulate" width="311.09677" x="18.951616" y="18.95162"></rect>
	<g id="g5370" style="fill:#ffffff;fill-opacity:1" transform="translate(39.1,39.6)"><path d="m 45.8,93.8 -6.9,0 0,-37.4 -0.1,0 L 24,75 22.9,75 8,56.4 l -0.1,0 0,37.4 -6.9,0 0,-48 6.5,0 15.9,19.7 16,-19.7 6.4,0 0,48 z" id="path5372" inkscape:connector-curvature="0" style="fill:#ffffff;fill-opacity:1"></path><path d="m 83.4,52 -20.4,0 0,14.5 19.6,0 0,6.2 -19.6,0 0,14.9 21,0 0,6.2 -27.9,0 0,-48 27.3,0 0,6.2 z" id="path5374" inkscape:connector-curvature="0" style="fill:#ffffff;fill-opacity:1"></path><path d="m 99.9,87.6 21.7,0 0,6.2 -28.6,0 0,-48 6.9,0 0,41.8 z" id="path5376" inkscape:connector-curvature="0" style="fill:#ffffff;fill-opacity:1"></path><path d="m 138,87.6 21.7,0 0,6.2 -28.6,0 0,-48 6.9,0 0,41.8 z" id="path5378" inkscape:connector-curvature="0" style="fill:#ffffff;fill-opacity:1"></path><path d="m 189.3,45.1 c 15.8,0 25.8,11.3 25.8,24.6 0,13 -9.7,24.6 -26,24.6 -15.7,0 -25.6,-11.6 -25.6,-24.6 0,-13.2 10.2,-24.6 25.8,-24.6 z m 0,43 c 10.8,0 18.7,-7.8 18.7,-18.3 0,-10.6 -8,-18.3 -18.7,-18.3 -10.7,0 -18.7,7.7 -18.7,18.3 0,10.5 8,18.3 18.7,18.3 z" id="path5380" inkscape:connector-curvature="0" style="fill:#ffffff;fill-opacity:1"></path><path d="m 268,93.8 -5.9,0 -32.1,-37 0,37 -6.5,0 0,-48 5.5,0 32.6,37.2 0,-37.2 6.5,0 0,48 z" id="path5382" inkscape:connector-curvature="0" style="fill:#ffffff;fill-opacity:1"></path></g>
	<g id="g5384" style="fill:#ffffff;fill-opacity:1" transform="translate(39.1,39.6)"><path d="m 9.1,4 -3.3,0 0,8.3 -1.4,0 0,-8.3 -3.3,0 0,-1.2 8,0 0,1.2 z" id="path5386" inkscape:connector-curvature="0" style="fill:#ffffff;fill-opacity:1"></path><path d="m 18.6,12.3 -1.4,0 0,-4.1 -5.4,0 0,4.2 -1.4,0 0,-9.6 1.4,0 0,4.2 5.4,0 0,-4.2 1.4,0 0,9.5 z" id="path5388" inkscape:connector-curvature="0" style="fill:#ffffff;fill-opacity:1"></path><path d="m 26.3,4 -4,0 0,2.9 3.9,0 0,1.2 -3.9,0 0,3 4.2,0 0,1.2 -5.5,0 0,-9.5 5.4,0 0,1.2 z" id="path5390" inkscape:connector-curvature="0" style="fill:#ffffff;fill-opacity:1"></path><path d="m 10.2,30.3 -1.4,0 -1.3,-2.8 -4,0 -1.2,2.8 -1.4,0 4.1,-9.6 1,0 4.2,9.6 z M 4,26.3 7,26.3 5.5,22.8 4,26.3 Z" id="path5392" inkscape:connector-curvature="0" style="fill:#ffffff;fill-opacity:1"></path><path d="m 20.2,30.3 -1.2,0 -6.3,-7.3 0,7.4 -1.3,0 0,-9.6 1.1,0 6.5,7.4 0,-7.4 1.3,0 0,9.5 z" id="path5394" inkscape:connector-curvature="0" style="fill:#ffffff;fill-opacity:1"></path><path d="m 22.5,20.8 3.7,0 c 3.5,0 5.1,2.5 5.1,4.8 0,2.5 -1.9,4.8 -5.1,4.8 l -3.7,0 0,-9.6 z m 1.4,8.3 2.1,0 c 3.1,0 3.8,-2.4 3.8,-3.5 0,-1.9 -1.2,-3.5 -3.9,-3.5 l -2.1,0 0,7 z" id="path5396" inkscape:connector-curvature="0" style="fill:#ffffff;fill-opacity:1"></path><path d="m 35.5,20.8 c 1.9,0 3.1,1 3.1,2.7 0,1.1 -0.6,1.9 -1.6,2.3 0.9,0.6 1.4,1.5 2.1,2.6 0.4,0.7 0.6,1 1.3,1.9 l -1.6,0 -1.3,-2 c -1.3,-2 -1.8,-2.2 -2.5,-2.2 l -0.6,0 0,4.1 -1.4,0 0,-9.6 2.5,0 z m -1,4.1 0.9,0 c 1.5,0 1.9,-0.8 1.9,-1.6 0,-0.9 -0.5,-1.4 -1.9,-1.4 l -0.9,0 0,3 z" id="path5398" inkscape:connector-curvature="0" style="fill:#ffffff;fill-opacity:1"></path><path d="m 47.1,22 -4,0 0,2.9 3.9,0 0,1.2 -3.9,0 0,3 4.2,0 0,1.2 -5.5,0 0,-9.6 5.4,0 0,1.3 z" id="path5400" inkscape:connector-curvature="0" style="fill:#ffffff;fill-opacity:1"></path><path d="m 58.5,30.4 -0.3,0 -3.1,-7.8 -3.2,7.8 -0.3,0 -3.9,-9.6 1.4,0 2.6,6.6 2.6,-6.6 1.3,0 2.7,6.6 2.6,-6.6 1.4,0 -3.8,9.6 z" id="path5402" inkscape:connector-curvature="0" style="fill:#ffffff;fill-opacity:1"></path><path d="m 79.5,30.4 -0.3,0 -3.1,-7.8 -3.1,7.8 -0.3,0 -3.9,-9.6 1.4,0 2.6,6.6 2.6,-6.6 1.3,0 2.7,6.6 2.6,-6.6 1.4,0 -3.9,9.6 z" id="path5404" inkscape:connector-curvature="0" style="fill:#ffffff;fill-opacity:1"></path><path d="m 84.1,29.6 c 0,0.5 -0.4,0.8 -0.8,0.8 -0.4,0 -0.8,-0.4 -0.8,-0.8 0,-0.5 0.4,-0.8 0.8,-0.8 0.4,0 0.8,0.4 0.8,0.8 z" id="path5406" inkscape:connector-curvature="0" style="fill:#ffffff;fill-opacity:1"></path></g>
	<polygon id="polygon5408" points="45.8,47.9 24.1,75 22.8,75 19.3,70.6 39.3,45.7 45.8,45.7 " style="fill:#ffffff;fill-opacity:1" transform="translate(39.1,39.6)"></polygon>
	<g id="g5410" style="fill:#ffffff;fill-opacity:1" transform="translate(39.1,39.6)"><path d="m 144.2,112.3 -5.3,0 0,3.8 5.3,0 0,1.8 -5.3,0 0,6.3 -2,0 0,-13.6 7.3,0 0,1.7 z" id="path5412" inkscape:connector-curvature="0" style="fill:#ffffff;fill-opacity:1"></path><path d="m 153.7,110.4 c 4.5,0 7.3,3.2 7.3,7 0,3.7 -2.8,7 -7.4,7 -4.5,0 -7.3,-3.3 -7.3,-7 0.1,-3.8 3,-7 7.4,-7 z m 0,12.2 c 3.1,0 5.3,-2.2 5.3,-5.2 0,-3 -2.3,-5.2 -5.3,-5.2 -3,0 -5.3,2.2 -5.3,5.2 0,3 2.2,5.2 5.3,5.2 z" id="path5414" inkscape:connector-curvature="0" style="fill:#ffffff;fill-opacity:1"></path><path d="m 175.3,118.8 c 0,3.3 -2,5.5 -6.1,5.5 -2.9,0 -5.7,-1.6 -5.7,-5.3 l 0,-8.5 2,0 0,8.1 c 0,1.5 0.2,2.2 0.8,2.8 0.8,0.8 1.8,1.2 2.9,1.2 1.5,0 2.6,-0.5 3.2,-1.1 0.7,-0.7 0.9,-1.7 0.9,-3 l 0,-7.9 2,0 0,8.2 z" id="path5416" inkscape:connector-curvature="0" style="fill:#ffffff;fill-opacity:1"></path><path d="m 191,124.2 -1.7,0 -9.1,-10.5 0,10.5 -1.8,0 0,-13.6 1.6,0 9.2,10.6 0,-10.6 1.8,0 0,13.6 z" id="path5418" inkscape:connector-curvature="0" style="fill:#ffffff;fill-opacity:1"></path><path d="m 194.5,110.6 5.3,0 c 5,0 7.3,3.6 7.3,6.8 0,3.5 -2.7,6.8 -7.2,6.8 l -5.3,0 0,-13.6 z m 2,11.8 3.1,0 c 4.4,0 5.5,-3.4 5.5,-5.1 0,-2.7 -1.7,-5.1 -5.6,-5.1 l -3,0 0,10.2 z" id="path5420" inkscape:connector-curvature="0" style="fill:#ffffff;fill-opacity:1"></path><path d="m 220.8,124.2 -2,0 -1.8,-4 -5.8,0 -1.7,4 -2,0 5.9,-13.7 1.4,0 6,13.7 z m -8.9,-5.8 4.2,0 -2.2,-4.9 -2,4.9 z" id="path5422" inkscape:connector-curvature="0" style="fill:#ffffff;fill-opacity:1"></path><path d="m 231,112.3 -4.7,0 0,11.9 -2,0 0,-11.9 -4.7,0 0,-1.8 11.4,0 0,1.8 z" id="path5424" inkscape:connector-curvature="0" style="fill:#ffffff;fill-opacity:1"></path><path d="m 235.3,124.2 -2,0 0,-13.6 2,0 0,13.6 z" id="path5426" inkscape:connector-curvature="0" style="fill:#ffffff;fill-opacity:1"></path><path d="m 245.5,110.4 c 4.5,0 7.3,3.2 7.3,7 0,3.7 -2.8,7 -7.4,7 -4.5,0 -7.3,-3.3 -7.3,-7 0.1,-3.8 3,-7 7.4,-7 z m 0,12.2 c 3.1,0 5.3,-2.2 5.3,-5.2 0,-3 -2.3,-5.2 -5.3,-5.2 -3,0 -5.3,2.2 -5.3,5.2 0,3 2.3,5.2 5.3,5.2 z" id="path5428" inkscape:connector-curvature="0" style="fill:#ffffff;fill-opacity:1"></path><path d="m 268.3,124.2 -1.7,0 -9.1,-10.5 0,10.5 -1.8,0 0,-13.6 1.6,0 9.2,10.6 0,-10.6 1.8,0 0,13.6 z" id="path5430" inkscape:connector-curvature="0" style="fill:#ffffff;fill-opacity:1"></path></g>
</svg>